<svg xmlns="http://www.w3.org/2000/svg" viewBox="0 0 160 50"><defs><style>.cls-1{fill:#0087ff;}.cls-2,.cls-3{isolation:isolate;}.cls-3{font-size:12px;font-family:Helvetica-Bold, Helvetica;font-weight:700;}.cls-3,.cls-4{fill:#fff;}</style></defs><title>Ресурс 2</title><g id="Слой_2" data-name="Слой 2"><g id="Слой_1-2" data-name="Слой 1"><g id="Telegram-4"><path id="Rectangle_3-2" data-name="Rectangle 3-2" class="cls-1" d="M25,0H135a25,25,0,0,1,25,25h0a25,25,0,0,1-25,25H25A25,25,0,0,1,0,25H0A25,25,0,0,1,25,0Z"/><g id="Messenger" class="cls-2"><text class="cls-3" transform="translate(60 29)">Messenger</text></g><g id="messenger-2"><g id="Group_2" data-name="Group 2"><path id="Path_1" data-name="Path 1" class="cls-4" d="M43.39,17.39c-4.54,0-8.22,3.4-8.22,7.61a7.41,7.41,0,0,0,3.06,5.93v2.9L41,32.29a9,9,0,0,0,2.36.32c4.54,0,8.22-3.41,8.22-7.61S47.93,17.39,43.39,17.39Zm.82,10.25L42.12,25.4,38,27.64l4.49-4.77,2.15,2.23,4-2.23Z"/></g></g></g></g></g></svg>