<svg xmlns="http://www.w3.org/2000/svg" viewBox="0 0 160 50"><defs><style>.cls-1{fill:#09a3e5;}.cls-2,.cls-3{isolation:isolate;}.cls-3{font-size:12px;font-family:Helvetica-Bold, Helvetica;font-weight:700;}.cls-3,.cls-5{fill:#fff;}.cls-4{letter-spacing:-0.07em;}</style></defs><title>Ресурс 1</title><g id="Слой_2" data-name="Слой 2"><g id="Слой_1-2" data-name="Слой 1"><g id="Telegram"><path id="Rectangle_3" data-name="Rectangle 3" class="cls-1" d="M25,0H135a25,25,0,0,1,25,25h0a25,25,0,0,1-25,25H25A25,25,0,0,1,0,25H0A25,25,0,0,1,25,0Z"/><g id="Telegram-2" class="cls-2"><text class="cls-3" transform="translate(64 29)"><tspan class="cls-4">T</tspan><tspan x="6.45" y="0">elegram</tspan></text></g><g id="telegram-3"><path id="_Составной_контур_" data-name="&lt;Составной контур&gt;" class="cls-5" d="M40.44,25.32l3.61,1.35,1.4,4.5a.41.41,0,0,0,.53.27.31.31,0,0,0,.14-.07l2-1.64a.59.59,0,0,1,.73,0l3.63,2.63a.43.43,0,0,0,.6-.09.56.56,0,0,0,.07-.16l2.66-12.8a.43.43,0,0,0-.33-.51.49.49,0,0,0-.24,0L40.43,24.52a.42.42,0,0,0-.24.55A.39.39,0,0,0,40.44,25.32Zm4.78.63,7.06-4.35a.13.13,0,0,1,.17,0,.14.14,0,0,1,0,.16L46.6,27.21a1.25,1.25,0,0,0-.37.73L46,29.41a.18.18,0,0,1-.2.16.19.19,0,0,1-.16-.14l-.76-2.68A.71.71,0,0,1,45.22,26Z"/></g></g></g></g></svg>